# Blender v2.74 (sub 0) OBJ File: ''
# www.blender.org
mtllib stone_1.mtl
o island_mesh01_5.006
v 7.701270 5.403737 3.917096
v 8.484770 5.641715 5.051496
v 8.859255 5.780382 4.665321
v 9.057455 5.596111 4.165226
v 9.049159 5.399840 3.627355
v 8.835681 5.352885 3.133592
v 8.449506 5.549156 2.759096
v 7.949395 5.780382 2.560911
v 7.411513 5.347831 2.569183
v 6.917769 5.347831 2.782666
v 6.543284 5.458602 3.168860
v 6.345085 5.616290 3.668955
v 6.353342 5.529555 4.206838
v 6.566820 5.529555 4.700585
v 6.953034 5.780382 5.075070
v 7.453144 5.280349 5.273270
v 7.990988 5.641715 5.265013
v 8.484770 0.703543 5.051496
v 7.701270 0.703300 3.917096
v 8.859255 0.866054 4.665320
v 9.057455 0.866054 4.165225
v 9.049159 0.703543 3.627354
v 8.835681 0.703543 3.133591
v 8.449506 0.912446 2.759095
v 7.949395 0.912446 2.560911
v 7.411513 0.703543 2.569183
v 6.917769 0.957885 2.782665
v 6.543284 0.957885 3.168860
v 6.345085 0.703543 3.668954
v 6.353342 0.703543 4.206837
v 6.566820 0.703543 4.700584
v 6.953034 0.912446 5.075069
v 7.453144 0.912446 5.273269
v 7.990988 0.703543 5.265012
v 8.920640 5.046120 5.682594
v 9.840956 5.184783 5.299660
v 10.207144 5.000527 4.375591
v 10.191866 5.000527 3.381721
v 9.797396 4.953561 2.469366
v 9.083807 4.953561 1.777407
v 8.159749 5.184783 1.411206
v 7.165895 4.977706 1.426489
v 6.253528 4.977706 1.820955
v 5.561584 5.184783 2.534536
v 5.195368 4.880878 3.458601
v 5.210654 4.933964 4.452459
v 5.605105 4.933964 5.364826
v 6.318694 5.184783 6.056770
v 7.242752 5.184783 6.422998
v 8.008272 4.667986 6.077065
v 9.152369 4.293417 6.018110
v 10.065083 4.293417 6.021737
v 10.543587 4.293417 4.814365
v 10.541233 4.293417 3.503639
v 10.025845 4.293417 2.311582
v 8.786295 4.293417 1.619665
v 7.578962 4.293417 1.141192
v 7.001764 4.293417 0.662962
v 6.170806 4.293417 1.701198
v 5.146549 4.293417 2.459531
v 4.427150 4.293417 3.318029
v 5.165327 4.293417 4.120551
v 5.680727 4.293417 5.312624
v 5.894862 4.293417 6.712716
v 7.102195 4.293417 7.191220
v 8.172403 4.293417 6.840618
v 9.410950 3.241962 6.392556
v 10.295422 3.241962 6.170551
v 10.813318 3.241962 4.863751
v 10.809383 3.241963 3.446000
v 10.251514 3.241963 2.155738
v 8.935147 3.241963 1.389329
v 7.628310 3.241963 0.871434
v 6.944121 3.241963 0.394847
v 5.894785 3.241963 1.301534
v 4.916214 3.241963 2.310694
v 4.157391 3.241963 3.268685
v 4.897207 3.241962 4.178189
v 5.455057 3.241962 5.468460
v 5.746048 3.241962 6.943055
v 7.052847 3.241962 7.460952
v 8.120703 3.241962 6.950425
v 10.496901 2.190512 5.723492
v 9.255115 2.190512 6.166885
v 10.811350 2.190512 4.278647
v 10.776300 2.190198 2.949051
v 10.439991 2.190512 2.025536
v 9.507639 2.190513 1.121457
v 8.300306 2.190513 0.642982
v 7.001764 2.190513 0.662962
v 5.809710 2.190513 1.178355
v 4.905615 2.190512 2.110696
v 4.542994 2.190512 3.485760
v 4.447132 2.190512 4.616590
v 4.962513 2.190512 5.808644
v 7.539106 2.190512 5.577108
v 7.102195 2.190512 7.191219
v 8.063061 2.190512 6.682274
v 9.840956 1.461654 5.299660
v 9.148973 1.299135 6.013248
v 10.043129 1.461654 4.138090
v 10.027811 1.299135 3.144217
v 9.797396 1.299135 2.469365
v 9.083807 1.299136 1.777406
v 8.159749 1.299136 1.411205
v 7.165895 1.299136 1.426488
v 6.253528 1.553488 1.820955
v 5.561584 1.553488 2.534535
v 5.195368 1.299135 3.458601
v 5.210654 1.299135 4.452459
v 5.605105 1.299135 5.364826
v 6.318694 1.299135 6.056769
v 7.242752 1.299135 6.422997
v 8.236645 1.299135 6.407681
vt 0.500000 0.500000
vt 0.707110 0.500000
vt 0.691340 0.420740
vt 0.646450 0.353550
vt 0.579260 0.308660
vt 0.500000 0.292890
vt 0.420740 0.308660
vt 0.353550 0.353550
vt 0.308660 0.420740
vt 0.292890 0.500000
vt 0.308660 0.579260
vt 0.353550 0.646450
vt 0.420740 0.691340
vt 0.500000 0.707110
vt 0.579260 0.691340
vt 0.646450 0.646450
vt 0.691340 0.579260
vt 0.822320 0.500000
vt 0.853550 0.353550
vt 0.770600 0.229400
vt 0.646450 0.146450
vt 0.500000 0.117320
vt 0.353550 0.146450
vt 0.229400 0.229400
vt 0.146450 0.353550
vt 0.117320 0.500000
vt 0.146450 0.646450
vt 0.229400 0.770600
vt 0.353550 0.853550
vt 0.500000 0.882680
vt 0.646450 0.853550
vt 0.770600 0.770600
vt 0.793190 0.646450
vt 0.292880 0.387490
vt 0.117310 0.353550
vt 0.144620 0.500000
vt 0.292880 0.225280
vt 0.153600 0.229400
vt 0.770600 0.846400
vt 0.853550 0.707120
vt 0.691340 0.707120
vt 0.646450 0.846400
vt 0.500000 0.837140
vt 0.353550 0.837140
vt 0.308660 0.707120
vt 0.229400 0.882690
vt 0.146450 0.707120
vt 0.841900 0.353550
vt 0.882690 0.229400
vt 0.707120 0.278140
vt 0.707120 0.308660
vt 0.841900 0.500000
vt 0.882690 0.646450
vt 0.707120 0.691340
vt 0.822830 0.770600
vt 0.707120 0.853550
vt 0.646450 0.833290
vt 0.770600 0.822830
vt 0.500000 0.833290
vt 0.353550 0.882690
vt 0.292880 0.691340
vt 0.219100 0.646450
vt 0.117310 0.770600
vt 0.292880 0.853550
vt 0.499980 0.371730
vt 0.499980 0.196150
vt 0.882680 0.500020
vt 0.500020 0.249010
vt 0.707070 0.146450
vt 0.810190 0.292930
vt 0.647980 0.292930
vt 0.308660 0.292930
vt 0.146450 0.292930
vt 0.292930 0.146450
vt 0.292930 0.308660
vt 0.822930 0.292930
vt 0.691340 0.292930
vt 0.850630 0.353550
vt 0.882640 0.500000
vt 0.850630 0.229400
vt 0.727240 0.149370
vt 0.603090 0.117360
vt 0.500000 0.117360
vt 0.353550 0.117360
vt 0.229400 0.117360
vt 0.117360 0.229400
vt 0.117360 0.353550
vt 0.167460 0.500000
vt 0.167460 0.646450
vt 0.117360 0.770600
vt 0.770600 0.117360
vt 0.646450 0.117360
vt 0.146450 0.853550
vt 0.308660 0.661760
vt 0.882640 0.770600
vt 0.882640 0.646450
vt 0.272760 0.229400
vt 0.396910 0.146450
vt 0.853550 0.646450
vn -0.013900 0.998400 -0.054000
vn 0.043800 0.910400 0.411400
vn 0.128200 0.978800 0.159700
vn 0.287500 0.929500 -0.231200
vn 0.217500 0.957200 -0.191100
vn 0.257700 0.962600 -0.083400
vn 0.403000 0.914100 -0.044200
vn -0.120000 0.985900 -0.117000
vn -0.323100 0.925100 -0.199600
vn -0.035500 0.975600 -0.216700
vn 0.033400 0.962100 -0.270700
vn -0.223700 0.973900 -0.038900
vn -0.222400 0.965900 0.132300
vn -0.333100 0.942900 -0.006300
vn 0.088000 0.989200 0.117100
vn 0.245800 0.918800 0.308700
vn -0.208600 0.903000 0.375600
vn 0.236900 -0.955700 0.174900
vn -0.004200 -0.999800 -0.019600
vn 0.351400 -0.932700 0.081800
vn 0.380400 -0.910400 0.162500
vn 0.321400 -0.946200 0.036800
vn 0.093200 -0.961900 -0.256900
vn -0.001200 -0.955700 -0.294400
vn 0.223600 -0.955600 -0.192000
vn -0.057200 -0.974400 -0.217400
vn -0.367600 -0.909600 -0.193500
vn -0.184500 -0.919400 -0.347400
vn -0.245900 -0.942200 -0.227500
vn -0.269300 -0.960000 0.076800
vn -0.093200 -0.961900 0.256900
vn 0.001200 -0.955700 0.294400
vn -0.171500 -0.947000 0.271600
vn -0.127900 -0.956800 0.261300
vn 0.188600 0.723200 0.664400
vn 0.437100 0.775400 0.455800
vn 0.722000 0.690900 0.037100
vn 0.707700 0.675100 -0.208400
vn 0.495800 0.788600 -0.363800
vn 0.514200 0.598500 -0.614300
vn 0.132000 0.664600 -0.735400
vn -0.050300 0.831100 -0.553900
vn -0.366000 0.755700 -0.543100
vn -0.539300 0.717300 -0.441300
vn -0.750100 0.661200 -0.012100
vn -0.846400 0.484900 0.220300
vn -0.704500 0.584800 0.402000
vn -0.539400 0.691700 0.480300
vn 0.314500 0.827400 0.465200
vn 0.183900 0.807700 0.560200
vn 0.299300 0.480500 0.824400
vn 0.540900 0.464900 0.700900
vn 0.925100 0.337800 0.173200
vn 0.921000 0.336000 -0.197000
vn 0.703000 0.276700 -0.655100
vn 0.406700 0.139200 -0.902900
vn 0.376600 0.301500 -0.875900
vn -0.019500 0.465500 -0.884800
vn -0.656900 0.297500 -0.692900
vn -0.683400 0.423000 -0.595000
vn -0.875000 0.482800 0.035400
vn -0.880500 0.223800 0.418000
vn -0.927300 0.111000 0.357600
vn -0.646700 0.417200 0.638600
vn 0.011400 0.447900 0.894000
vn 0.409100 0.521300 0.748900
vn 0.327700 0.024000 0.944500
vn 0.733100 0.082700 0.675100
vn 0.978200 0.081600 0.190900
vn 0.973700 0.155000 -0.166700
vn 0.747400 0.275900 -0.604500
vn 0.410100 0.331200 -0.849800
vn 0.412800 0.196000 -0.889500
vn -0.266300 0.106800 -0.958000
vn -0.644300 0.275400 -0.713500
vn -0.735400 0.187900 -0.651000
vn -0.998600 -0.003400 -0.053500
vn -0.855700 0.275000 0.438400
vn -0.891700 0.339900 0.298700
vn -0.787300 -0.124200 0.603900
vn -0.259500 -0.092400 0.961300
vn 0.403400 -0.084300 0.911100
vn 0.682000 -0.462600 0.566500
vn 0.418500 -0.291800 0.860100
vn 0.936600 -0.343800 0.067300
vn 0.899500 -0.418500 -0.125300
vn 0.843400 -0.263700 -0.468100
vn 0.553600 -0.177900 -0.813600
vn 0.200800 -0.268800 -0.942000
vn -0.105900 -0.435100 -0.894100
vn -0.588800 -0.347100 -0.730000
vn -0.769200 -0.415600 -0.485300
vn -0.929000 -0.369900 0.008800
vn -0.978600 -0.135600 0.154700
vn -0.754800 -0.157300 0.636900
vn -0.710600 -0.142500 0.689000
vn 0.458000 -0.262600 0.849300
vn 0.333600 -0.317900 0.887500
vn 0.550400 -0.756200 0.353700
vn 0.505500 -0.682200 0.528200
vn 0.649300 -0.754700 0.094100
vn 0.648400 -0.760400 -0.035600
vn 0.510700 -0.788100 -0.343600
vn 0.249700 -0.816300 -0.520900
vn 0.146500 -0.865700 -0.478600
vn -0.244000 -0.789800 -0.562700
vn -0.372000 -0.817100 -0.440400
vn -0.385400 -0.821600 -0.420100
vn -0.609100 -0.766500 -0.203600
vn -0.634200 -0.765300 0.109900
vn -0.489900 -0.812500 0.316000
vn -0.260400 -0.568300 0.780500
vn -0.812900 0.519700 0.262800
vn 0.037500 -0.817900 0.574200
vn 0.138400 -0.685600 0.714700
usemtl material_1_rocks
s 1
f 1/1/1 2/2/2 3/3/3
f 1/1/1 3/3/3 4/4/4
f 1/1/1 4/4/4 5/5/5
f 1/1/1 5/5/5 6/6/6
f 1/1/1 6/6/6 7/7/7
f 1/1/1 7/7/7 8/8/8
f 1/1/1 8/8/8 9/9/9
f 1/1/1 9/9/9 10/10/10
f 1/1/1 10/10/10 11/11/11
f 1/1/1 11/11/11 12/12/12
f 1/1/1 12/12/12 13/13/13
f 1/1/1 13/13/13 14/14/14
f 1/1/1 14/14/14 15/15/15
f 1/1/1 15/15/15 16/16/16
f 1/1/1 16/16/16 17/17/17
f 1/1/1 17/17/17 2/2/2
f 18/10/18 19/1/19 20/9/20
f 20/9/20 19/1/19 21/8/21
f 21/8/21 19/1/19 22/7/22
f 22/7/22 19/1/19 23/6/23
f 23/6/23 19/1/19 24/5/24
f 24/5/24 19/1/19 25/4/25
f 25/4/25 19/1/19 26/3/26
f 26/3/26 19/1/19 27/2/27
f 27/2/27 19/1/19 28/17/28
f 28/17/28 19/1/19 29/16/29
f 29/16/29 19/1/19 30/15/30
f 30/15/30 19/1/19 31/14/31
f 31/14/31 19/1/19 32/13/32
f 32/13/32 19/1/19 33/12/33
f 33/12/33 19/1/19 34/11/34
f 34/11/34 19/1/19 18/10/18
f 35/18/35 36/19/36 3/3/3
f 3/3/3 2/2/2 35/18/35
f 36/19/36 37/20/37 4/4/4
f 4/4/4 3/3/3 36/19/36
f 37/20/37 38/21/38 5/5/5
f 5/5/5 4/4/4 37/20/37
f 5/5/5 38/21/38 39/22/39
f 39/22/39 6/6/6 5/5/5
f 6/6/6 39/22/39 40/23/40
f 40/23/40 7/7/7 6/6/6
f 7/7/7 40/23/40 41/24/41
f 41/24/41 8/8/8 7/7/7
f 9/9/9 8/8/8 41/24/41
f 41/24/41 42/25/42 9/9/9
f 10/10/10 9/9/9 42/25/42
f 42/25/42 43/26/43 10/10/10
f 11/11/11 10/10/10 43/26/43
f 43/26/43 44/27/44 11/11/11
f 12/12/12 11/11/11 44/27/44
f 44/27/44 45/28/45 12/12/12
f 46/29/46 13/13/13 12/12/12
f 12/12/12 45/28/45 46/29/46
f 47/30/47 14/14/14 13/13/13
f 13/13/13 46/29/46 47/30/47
f 48/31/48 15/15/15 14/14/14
f 14/14/14 47/30/47 48/31/48
f 49/32/49 16/16/16 15/15/15
f 15/15/15 48/31/48 49/32/49
f 50/33/50 17/17/17 16/16/16
f 16/16/16 49/32/49 50/33/50
f 50/33/50 35/18/35 2/2/2
f 2/2/2 17/17/17 50/33/50
f 51/10/51 52/34/52 36/35/36
f 36/35/36 35/36/35 51/10/51
f 52/34/52 53/37/53 37/38/37
f 37/38/37 36/35/36 52/34/52
f 37/39/37 53/40/53 54/41/54
f 54/41/54 38/42/38 37/39/37
f 38/42/38 54/41/54 55/14/55
f 55/14/55 39/43/39 38/42/38
f 40/44/40 39/43/39 55/14/55
f 55/14/55 56/45/56 40/44/40
f 41/46/41 40/44/40 56/45/56
f 56/45/56 57/47/57 41/46/41
f 42/48/42 41/49/41 57/50/57
f 57/50/57 58/51/58 42/48/42
f 43/52/43 42/48/42 58/51/58
f 58/51/58 59/2/59 43/52/43
f 44/53/44 43/52/43 59/2/59
f 59/2/59 60/54/60 44/53/44
f 45/55/45 44/53/44 60/54/60
f 60/54/60 61/56/61 45/55/45
f 62/41/62 46/57/46 45/58/45
f 45/58/45 61/40/61 62/41/62
f 63/14/63 47/59/47 46/57/46
f 46/57/46 62/41/62 63/14/63
f 63/14/63 64/45/64 48/60/48
f 48/60/48 47/59/47 63/14/63
f 65/47/65 49/46/49 48/60/48
f 48/60/48 64/45/64 65/47/65
f 66/61/66 50/62/50 49/63/49
f 49/63/49 65/64/65 66/61/66
f 66/61/66 51/10/51 35/36/35
f 35/36/35 50/62/50 66/61/66
f 67/1/67 68/65/68 52/34/52
f 52/34/52 51/10/51 67/1/67
f 68/65/68 69/66/69 53/37/53
f 53/37/53 52/34/52 68/65/68
f 53/40/53 69/67/69 70/2/70
f 70/2/70 54/41/54 53/40/53
f 54/41/54 70/2/70 71/1/71
f 71/1/71 55/14/55 54/41/54
f 55/14/55 71/1/71 72/10/72
f 72/10/72 56/45/56 55/14/55
f 56/45/56 72/10/72 73/26/73
f 73/26/73 57/47/57 56/45/56
f 58/51/58 57/50/57 73/68/73
f 73/68/73 74/6/74 58/51/58
f 59/2/59 58/51/58 74/6/74
f 74/6/74 75/1/75 59/2/59
f 60/54/60 59/2/59 75/1/75
f 75/1/75 76/14/76 60/54/60
f 61/56/61 60/54/60 76/14/76
f 76/14/76 77/30/77 61/56/61
f 78/2/78 62/41/62 61/40/61
f 61/40/61 77/67/77 78/2/78
f 79/1/79 63/14/63 62/41/62
f 62/41/62 78/2/78 79/1/79
f 80/10/80 64/45/64 63/14/63
f 63/14/63 79/1/79 80/10/80
f 81/26/81 65/47/65 64/45/64
f 64/45/64 80/10/80 81/26/81
f 82/14/82 66/61/66 65/64/65
f 65/64/65 81/30/81 82/14/82
f 67/1/67 51/10/51 66/61/66
f 66/61/66 82/14/82 67/1/67
f 83/51/83 68/65/68 67/1/67
f 67/1/67 84/2/84 83/51/83
f 83/51/83 85/69/85 69/66/69
f 69/66/69 68/65/68 83/51/83
f 70/2/70 69/67/69 85/70/85
f 85/70/85 86/71/86 70/2/70
f 70/2/70 86/71/86 87/6/87
f 87/6/87 71/1/71 70/2/70
f 71/1/71 87/6/87 88/72/88
f 88/72/88 72/10/72 71/1/71
f 72/10/72 88/72/88 89/73/89
f 89/73/89 73/26/73 72/10/72
f 73/68/73 89/74/89 90/75/90
f 90/75/90 74/6/74 73/68/73
f 74/6/74 90/75/90 91/10/91
f 91/10/91 75/1/75 74/6/74
f 76/14/76 75/1/75 91/10/91
f 91/10/91 92/61/92 76/14/76
f 77/30/77 76/14/76 92/61/92
f 92/61/92 93/64/93 77/30/77
f 93/76/93 94/77/94 78/2/78
f 78/2/78 77/67/77 93/76/93
f 95/6/95 79/1/79 78/2/78
f 78/2/78 94/77/94 95/6/95
f 95/6/95 96/72/96 80/10/80
f 80/10/80 79/1/79 95/6/95
f 96/72/96 97/73/97 81/26/81
f 81/26/81 80/10/80 96/72/96
f 97/56/97 98/54/98 82/14/82
f 82/14/82 81/30/81 97/56/97
f 84/2/84 67/1/67 82/14/82
f 82/14/82 98/54/98 84/2/84
f 99/78/99 83/51/83 84/2/84
f 84/2/84 100/79/100 99/78/99
f 101/80/101 85/69/85 83/51/83
f 83/51/83 99/78/99 101/80/101
f 86/71/86 85/70/85 101/81/101
f 101/81/101 102/82/102 86/71/86
f 87/6/87 86/71/86 102/82/102
f 102/82/102 103/83/103 87/6/87
f 88/72/88 87/6/87 103/83/103
f 103/83/103 104/84/104 88/72/88
f 89/73/89 88/72/88 104/84/104
f 104/84/104 105/85/105 89/73/89
f 89/74/89 105/86/105 106/87/106
f 106/87/106 90/75/90 89/74/89
f 90/75/90 106/87/106 107/88/107
f 107/88/107 91/10/91 90/75/90
f 91/10/91 107/88/107 108/89/108
f 108/89/108 92/61/92 91/10/91
f 92/61/92 108/89/108 109/90/109
f 109/90/109 93/64/93 92/61/92
f 93/76/93 109/91/109 110/92/110
f 110/92/110 94/77/94 93/76/93
f 110/92/110 111/83/111 95/6/95
f 95/6/95 94/77/94 110/92/110
f 95/6/95 111/83/111 112/84/112
f 112/84/112 96/72/96 95/6/95
f 113/28/113 97/93/97 96/94/96
f 96/94/96 112/29/112 113/28/113
f 113/95/114 114/96/115 98/54/98
f 98/54/98 97/56/97 113/95/114
f 114/96/115 100/79/100 84/2/84
f 84/2/84 98/54/98 114/96/115
f 20/9/20 99/25/99 100/26/100
f 100/26/100 18/10/18 20/9/20
f 21/8/21 101/97/101 99/25/99
f 99/25/99 20/9/20 21/8/21
f 102/98/102 101/97/101 21/8/21
f 21/8/21 22/7/22 102/98/102
f 103/22/103 102/98/102 22/7/22
f 22/7/22 23/6/23 103/22/103
f 104/21/104 103/22/103 23/6/23
f 23/6/23 24/5/24 104/21/104
f 105/20/105 104/21/104 24/5/24
f 24/5/24 25/4/25 105/20/105
f 105/20/105 25/4/25 26/3/26
f 26/3/26 106/19/106 105/20/105
f 106/19/106 26/3/26 27/2/27
f 27/2/27 107/67/107 106/19/106
f 107/67/107 27/2/27 28/17/28
f 28/17/28 108/99/108 107/67/107
f 108/99/108 28/17/28 29/16/29
f 29/16/29 109/32/109 108/99/108
f 29/16/29 30/15/30 110/31/110
f 110/31/110 109/32/109 29/16/29
f 30/15/30 31/14/31 111/30/111
f 111/30/111 110/31/110 30/15/30
f 31/14/31 32/13/32 112/29/112
f 112/29/112 111/30/111 31/14/31
f 32/13/32 33/12/33 113/28/114
f 113/28/114 112/29/112 32/13/32
f 33/12/33 34/11/34 114/27/115
f 114/27/115 113/28/114 33/12/33
f 18/10/18 100/26/100 114/27/115
f 114/27/115 34/11/34 18/10/18
